<svg width="948" height="480" viewBox="0 0 948 480" fill="none" xmlns="http://www.w3.org/2000/svg">
<path d="M718.805 167.416C724.531 142.875 759.469 142.875 765.195 167.416C768.901 183.299 787.113 190.843 800.965 182.233C822.367 168.928 847.072 193.633 833.767 215.035C825.157 228.887 832.701 247.099 848.584 250.805C873.125 256.531 873.125 291.469 848.584 297.195C832.701 300.901 825.157 319.113 833.767 332.965C847.072 354.367 822.367 379.072 800.965 365.767C787.113 357.157 768.901 364.701 765.195 380.584C759.469 405.125 724.531 405.125 718.805 380.584C715.099 364.701 696.887 357.157 683.035 365.767C661.633 379.072 636.928 354.367 650.233 332.965C658.843 319.113 651.299 300.901 635.416 297.195C610.875 291.469 610.875 256.531 635.416 250.805C651.299 247.099 658.843 228.887 650.233 215.035C636.928 193.633 661.633 168.928 683.035 182.233C696.887 190.843 715.099 183.299 718.805 167.416Z" fill="#FDFF0A"/>
<path d="M182.805 99.4163C188.531 74.8746 223.469 74.8746 229.195 99.4163C232.901 115.299 251.113 122.843 264.965 114.233C286.367 100.928 311.072 125.633 297.767 147.035C289.157 160.887 296.701 179.099 312.584 182.805C337.125 188.531 337.125 223.469 312.584 229.195C296.701 232.901 289.157 251.113 297.767 264.965C311.072 286.367 286.367 311.072 264.965 297.767C251.113 289.157 232.901 296.701 229.195 312.584C223.469 337.125 188.531 337.125 182.805 312.584C179.099 296.701 160.887 289.157 147.035 297.767C125.633 311.072 100.928 286.367 114.233 264.965C122.843 251.113 115.299 232.901 99.4163 229.195C74.8746 223.469 74.8746 188.531 99.4163 182.805C115.299 179.099 122.843 160.887 114.233 147.035C100.928 125.633 125.633 100.928 147.035 114.233C160.887 122.843 179.099 115.299 182.805 99.4163Z" fill="#FDFF0A"/>
</svg>
