<svg width="255" height="275" viewBox="0 0 255 275" fill="none" xmlns="http://www.w3.org/2000/svg">
<path d="M77.1572 18.5544C67.0333 22.9848 63.0096 26.9782 50.1307 39.4108C31.7232 52.434 20.6076 66.0663 11.4879 87.1609C10.4162 89.6399 8.98332 92.3118 8.20253 94.8871C7.47733 97.279 8.04557 99.779 7.02917 102.149C4.95528 106.984 2.61274 111.461 2.25749 116.926C2.01933 120.589 0.145434 123.74 0.145434 127.48V135.798C0.145434 140.837 -0.475741 146.302 0.849452 151.166C3.23653 159.926 1.54046 168.998 3.11796 177.89C5.07207 188.906 5.25973 201.16 11.0968 210.822C12.7723 213.595 13.6461 216.883 15.4774 219.519C17.2637 222.09 19.9306 223.749 21.6571 226.358C25.0805 231.532 29.0009 235.558 33.8601 239.277C37.7363 242.244 41.9387 246.488 46.1804 248.692C52.3234 251.885 58.7315 254.531 64.7978 257.896C76.0427 264.134 88.7283 270.059 101.289 272.884C111.614 275.206 121.908 274.995 132.423 274.995C136.274 274.995 140.121 273.99 143.922 273.306C148.309 272.517 151.929 268.99 156.125 268.155C158.815 267.62 161.283 263.382 163.83 262.16C165.909 261.163 168.448 258.991 170.127 257.178C176.11 250.719 184.474 246.474 190.934 240.628C197.802 234.414 205.696 230.008 212.759 224.078C217.43 220.156 223.633 218.11 227.934 213.777C232.221 209.459 235.512 204.728 238.964 199.76C241.537 196.057 242.415 192.221 244.049 187.939C245.161 185.021 246.46 182.213 247.647 179.284C251.52 169.729 255 161.834 255 151.123C255 145.542 254.038 140 253.24 134.489C252.986 132.733 253.162 130.795 252.81 129.085C252.339 126.796 250.975 125.166 250.815 122.667C250.417 116.439 250.612 108.056 246.943 103.078C239.739 93.3012 233.962 82.6377 228.638 71.6664C226.115 66.4659 223.474 61.4755 222.068 55.7075C221.386 52.9128 219.668 50.0364 217.296 48.5302C212.122 45.2448 206.945 40.645 202.59 36.371C199.859 33.6917 196.396 30.9408 193.281 28.7715C189.026 25.8083 185.733 21.797 181.782 18.3856C177.049 14.2987 172.497 11.4419 166.685 9.3506C159.185 6.65207 151.182 2.73184 143.374 1.24448C135.606 -0.235209 128.445 -0.328402 120.611 0.611189C113.694 1.44073 107.156 4.83696 100.507 6.14193C91.7031 7.86982 85.1305 15.0652 77.1572 18.5544Z" fill="#FDFF0A"/>
</svg>
