<svg width="127" height="127" viewBox="0 0 127 127" fill="none" xmlns="http://www.w3.org/2000/svg">
<path d="M54.6732 7.74468C56.8491 -1.58137 70.1259 -1.58137 72.3018 7.74468L74.5712 17.4716C75.9794 23.5072 82.9004 26.374 88.164 23.1019L96.6467 17.8287C104.78 12.7727 114.168 22.1609 109.112 30.294L103.839 38.7766C100.567 44.0402 103.433 50.9612 109.469 52.3694L119.196 54.6388C128.522 56.8147 128.522 70.0915 119.196 72.2674L109.469 74.5368C103.433 75.945 100.567 82.866 103.839 88.1296L109.112 96.6123C114.168 104.745 104.78 114.134 96.6467 109.078L88.164 103.804C82.9004 100.532 75.9794 103.399 74.5712 109.435L72.3018 119.162C70.1259 128.488 56.8491 128.488 54.6732 119.162L52.4038 109.435C50.9956 103.399 44.0746 100.532 38.811 103.804L30.3283 109.078C22.1952 114.134 12.8071 104.745 17.863 96.6123L23.1363 88.1296C26.4084 82.866 23.5416 75.945 17.506 74.5368L7.77905 72.2674C-1.547 70.0915 -1.54701 56.8147 7.77905 54.6388L17.506 52.3694C23.5416 50.9612 26.4084 44.0402 23.1363 38.7766L17.863 30.294C12.8071 22.1609 22.1952 12.7727 30.3283 17.8287L38.811 23.1019C44.0746 26.374 50.9956 23.5072 52.4038 17.4716L54.6732 7.74468Z" fill="#E6284B"/>
</svg>
